<svg width="16" height="16" viewBox="0 0 16 16" fill="none" xmlns="http://www.w3.org/2000/svg">
<g opacity="0.8">
<path d="M8.00001 1.85134C10.0026 1.85134 10.2398 1.859 11.0306 1.89508C11.7619 1.92842 12.159 2.0506 12.4233 2.15331C12.7734 2.28937 13.0232 2.45189 13.2856 2.71432C13.5481 2.97678 13.7106 3.22662 13.8467 3.5767C13.9494 3.84098 14.0716 4.2381 14.1049 4.96934C14.141 5.76018 14.1486 5.9974 14.1486 7.99996C14.1486 10.0025 14.141 10.2398 14.1049 11.0306C14.0716 11.7618 13.9494 12.159 13.8467 12.4232C13.7106 12.7733 13.5481 13.0232 13.2857 13.2856C13.0232 13.5481 12.7734 13.7106 12.4233 13.8466C12.159 13.9493 11.7619 14.0715 11.0306 14.1049C10.2399 14.141 10.0027 14.1486 8.00001 14.1486C5.99727 14.1486 5.76011 14.141 4.96936 14.1049C4.23811 14.0715 3.84099 13.9493 3.57671 13.8466C3.22663 13.7106 2.97679 13.5481 2.71436 13.2856C2.45192 13.0232 2.28937 12.7733 2.15332 12.4232C2.05061 12.159 1.92843 11.7618 1.89508 11.0306C1.859 10.2398 1.85135 10.0025 1.85135 7.99996C1.85135 5.9974 1.859 5.76018 1.89508 4.96934C1.92843 4.2381 2.05061 3.84098 2.15332 3.5767C2.28937 3.22662 2.4519 2.97678 2.71436 2.71435C2.97679 2.45189 3.22663 2.28937 3.57671 2.15331C3.84099 2.0506 4.23811 1.92842 4.96936 1.89508C5.7602 1.859 5.99742 1.85134 8.00001 1.85134ZM8.00001 0.5C5.96312 0.5 5.70771 0.508634 4.90776 0.545133C4.10947 0.581543 3.56427 0.708339 3.08721 0.893724C2.59402 1.08539 2.17577 1.34184 1.75879 1.75879C1.34184 2.17576 1.08539 2.59402 0.893755 3.08721C0.708339 3.56426 0.581544 4.10946 0.545133 4.90774C0.508634 5.7077 0.5 5.9631 0.5 7.99996C0.5 10.0368 0.508634 10.2923 0.545133 11.0922C0.581544 11.8905 0.708339 12.4357 0.893755 12.9127C1.08539 13.4059 1.34184 13.8242 1.75879 14.2412C2.17577 14.6581 2.59402 14.9146 3.08721 15.1062C3.56427 15.2916 4.10947 15.4184 4.90776 15.4548C5.70771 15.4913 5.96312 15.4999 8.00001 15.4999C10.0369 15.4999 10.2923 15.4913 11.0922 15.4548C11.8905 15.4184 12.4357 15.2916 12.9128 15.1062C13.406 14.9146 13.8242 14.6581 14.2412 14.2412C14.6582 13.8242 14.9146 13.4059 15.1063 12.9127C15.2917 12.4357 15.4185 11.8905 15.4549 11.0922C15.4914 10.2923 15.5 10.0368 15.5 7.99996C15.5 5.9631 15.4914 5.7077 15.4549 4.90774C15.4185 4.10946 15.2917 3.56426 15.1063 3.08721C14.9146 2.59402 14.6582 2.17576 14.2412 1.75879C13.8242 1.34184 13.406 1.08539 12.9128 0.893724C12.4357 0.708339 11.8905 0.581543 11.0922 0.545133C10.2923 0.508634 10.0369 0.5 8.00001 0.5Z" fill="white"/>
<path d="M8.00371 4.1521C5.87664 4.1521 4.15234 5.87639 4.15234 8.00342C4.15234 10.1305 5.87664 11.8548 8.00371 11.8548C10.1307 11.8548 11.855 10.1305 11.855 8.00342C11.855 5.87639 10.1307 4.1521 8.00371 4.1521ZM8.00371 10.5034C6.62297 10.5034 5.50369 9.38415 5.50369 8.00342C5.50369 6.62272 6.62297 5.50344 8.00371 5.50344C9.38441 5.50344 10.5037 6.62272 10.5037 8.00342C10.5037 9.38415 9.38441 10.5034 8.00371 10.5034Z" fill="white"/>
<path d="M12.9055 3.99767C12.9055 4.4947 12.5025 4.89766 12.0055 4.89766C11.5084 4.89766 11.1055 4.4947 11.1055 3.99767C11.1055 3.50061 11.5084 3.09766 12.0055 3.09766C12.5025 3.09766 12.9055 3.50061 12.9055 3.99767Z" fill="white"/>
</g>
</svg>
