<svg width="16" height="13" viewBox="0 0 16 13" fill="none" xmlns="http://www.w3.org/2000/svg">
<path opacity="0.8" fill-rule="evenodd" clip-rule="evenodd" d="M15.2495 1.4429C14.698 1.68789 14.1046 1.85287 13.4821 1.92737C14.1176 1.54639 14.6056 0.943436 14.835 0.224984C14.2411 0.57796 13.5816 0.833445 12.8812 0.971935C12.3197 0.373975 11.5193 0 10.6348 0C8.93543 0 7.55752 1.37791 7.55752 3.07729C7.55752 3.31828 7.58502 3.55326 7.63752 3.77875C5.07969 3.65076 2.81234 2.42534 1.29444 0.563462C1.02946 1.01793 0.87797 1.5464 0.87797 2.11036C0.87797 3.17779 1.42043 4.11973 2.24688 4.67169C1.74191 4.65569 1.26794 4.5172 0.85247 4.28672V4.32521C0.85247 5.81661 1.9139 7.06003 3.32081 7.34351C3.06282 7.41351 2.79084 7.45151 2.51036 7.45151C2.31187 7.45151 2.11889 7.43201 1.9309 7.39601C2.32237 8.61843 3.4593 9.50837 4.80571 9.53337C3.75278 10.3583 2.42587 10.8508 0.983962 10.8508C0.734978 10.8508 0.489996 10.8363 0.249512 10.8073C1.61142 11.6802 3.22881 12.1902 4.9667 12.1902C10.6268 12.1902 13.7221 7.501 13.7221 3.43477C13.7221 3.30128 13.7196 3.16829 13.7131 3.0368C14.3151 2.60183 14.837 2.05986 15.2495 1.4429Z" fill="white"/>
</svg>
