<svg width="17" height="12" viewBox="0 0 17 12" fill="none" xmlns="http://www.w3.org/2000/svg">
<path opacity="0.8" fill-rule="evenodd" clip-rule="evenodd" d="M16.0628 1.23629C16.3122 1.48573 16.492 1.79616 16.5841 2.13667C17.1147 4.27232 16.9921 7.64526 16.5944 9.86332C16.5023 10.2038 16.3225 10.5143 16.0731 10.7637C15.8237 11.0131 15.5132 11.1929 15.1727 11.285C13.9262 11.625 8.90899 11.625 8.90899 11.625C8.90899 11.625 3.89182 11.625 2.64525 11.285C2.30474 11.1929 1.99431 11.0131 1.74487 10.7637C1.49543 10.5143 1.31569 10.2038 1.22355 9.86332C0.689896 7.73695 0.836188 4.36195 1.21325 2.14698C1.30539 1.80647 1.48513 1.49603 1.73457 1.24659C1.984 0.997156 2.29444 0.817415 2.63495 0.725277C3.88152 0.3853 8.89868 0.375 8.89868 0.375C8.89868 0.375 13.9159 0.375 15.1624 0.714971C15.5029 0.807115 15.8134 0.986856 16.0628 1.23629ZM11.4639 6L7.30184 8.41071V3.58928L11.4639 6Z" fill="white"/>
</svg>
