<svg width="1440" height="633" viewBox="0 0 1440 633" fill="none" xmlns="http://www.w3.org/2000/svg">
<mask id="mask0_592_3" style="mask-type:alpha" maskUnits="userSpaceOnUse" x="0" y="0" width="1440" height="633">
<rect width="1440" height="633" fill="#FF3A00"/>
</mask>
<g mask="url(#mask0_592_3)">
<path opacity="0.03" d="M1978.15 80.2761C2035.27 297.934 2036.16 488.285 1980.81 651.33C1925.46 814.375 1813.86 1009.14 1646 1235.62C1478.15 1462.1 1291.09 1475.93 1084.83 1277.09C878.576 1078.26 715.748 846.36 596.352 581.398C476.955 316.436 541.003 108.222 788.495 -43.2435C1035.99 -194.709 1281.85 -266.404 1526.1 -258.327C1770.34 -250.249 1921.02 -137.382 1978.15 80.2761Z" fill="url(#paint0_linear_592_3)"/>
<path opacity="0.03" d="M1705.68 469.648C1665.19 618.62 1600.6 732.115 1511.91 810.135C1423.22 888.155 1290.23 965.792 1112.93 1043.05C935.64 1120.3 819.678 1064.53 765.048 875.731C710.417 686.935 692.924 493.334 712.568 294.93C732.212 96.5259 841.527 -5.37738 1040.51 -10.7796C1239.5 -16.1818 1410.23 25.2961 1552.71 113.654C1695.18 202.012 1746.17 320.677 1705.68 469.648Z" fill="url(#paint1_linear_592_3)"/>
<path opacity="0.05" d="M1488.82 230.283C1508.31 327.782 1503.71 411.764 1475.02 482.23C1446.33 552.696 1392 635.68 1312.03 731.181C1232.06 826.682 1149.2 827.883 1063.44 734.783C977.682 641.683 911.948 535.137 866.236 415.143C820.523 295.15 854.232 204.989 967.36 144.66C1080.49 84.3307 1190.81 59.1445 1298.32 69.1008C1405.83 79.0572 1469.33 132.785 1488.82 230.283Z" fill="url(#paint2_linear_592_3)"/>
</g>
<defs>
<linearGradient id="paint0_linear_592_3" x1="183.532" y1="433.824" x2="2251.6" y2="568.4" gradientUnits="userSpaceOnUse">
<stop stop-color="#5036EB"/>
<stop offset="1" stop-color="#5145C1"/>
</linearGradient>
<linearGradient id="paint1_linear_592_3" x1="517.57" y1="65.9508" x2="1701.31" y2="853.459" gradientUnits="userSpaceOnUse">
<stop stop-color="#5036EB"/>
<stop offset="1" stop-color="#5145C1"/>
</linearGradient>
<linearGradient id="paint2_linear_592_3" x1="688.031" y1="339.245" x2="1596.62" y2="452.822" gradientUnits="userSpaceOnUse">
<stop stop-color="#5036EB"/>
<stop offset="1" stop-color="#5145C1"/>
</linearGradient>
</defs>
</svg>
